<svg viewBox="0 0 200 200" xmlns="http://www.w3.org/2000/svg">
  <path fill="#010101" d="M39.7,-69.3C52.7,-61.2,65.5,-53.2,72.2,-41.7C78.8,-30.1,79.4,-15.1,80.1,0.4C80.7,15.8,81.4,31.6,75.1,43.7C68.7,55.7,55.2,64,41.5,70C27.8,75.9,13.9,79.4,1.7,76.4C-10.4,73.4,-20.9,63.8,-31,55.8C-41.1,47.8,-50.9,41.4,-60.7,32.4C-70.6,23.4,-80.4,11.7,-80.9,-0.3C-81.3,-12.2,-72.4,-24.4,-64.5,-36.7C-56.5,-49,-49.6,-61.4,-39,-70.9C-28.4,-80.3,-14.2,-86.8,-0.4,-86C13.3,-85.3,26.7,-77.3,39.7,-69.3Z" transform="translate(100 100)" />
</svg>

